<svg width="69" height="69" viewBox="0 0 69 69" fill="none" xmlns="http://www.w3.org/2000/svg">
<path d="M66.9759 19.0382H55.1165V6.05026C55.1165 3.26554 52.8509 1 50.0662 1H18.9728C16.1881 1 13.9224 3.26554 13.9224 6.05026V8.40578C13.9224 8.94745 14.3615 9.38659 14.9032 9.38659C15.4449 9.38659 15.884 8.94745 15.884 8.40578V6.05026C15.884 4.34718 17.2696 2.96162 18.9728 2.96162H23.2554L24.3705 7.19415C24.484 7.62493 24.8735 7.92505 25.3189 7.92505H43.72C44.1654 7.92505 44.555 7.62493 44.6684 7.19415L45.7836 2.96162H50.0662C51.7693 2.96162 53.1549 4.34718 53.1549 6.05026V19.0382H15.884V12.9247C15.884 12.383 15.4449 11.9439 14.9032 11.9439C14.3615 11.9439 13.9224 12.383 13.9224 12.9247V19.0383H10.7688C10.2271 19.0383 9.78794 19.4774 9.78794 20.0191C9.78794 20.5608 10.2271 20.9999 10.7688 20.9999H65.9951V36.7752H2.96162V20.9998H6.2425C6.78417 20.9998 7.22332 20.5607 7.22332 20.019C7.22332 19.4773 6.78417 19.0382 6.2425 19.0382H1.98081C1.43914 19.0382 1 19.4773 1 20.019V37.7559C1 38.2975 1.43914 38.7367 1.98081 38.7367H13.9224V62.9063C13.9224 65.6911 16.1879 67.9567 18.9728 67.9567H50.0662C52.8509 67.9567 55.1165 65.6912 55.1165 62.9063V60.6832C55.1165 60.1415 54.6773 59.7024 54.1357 59.7024C53.594 59.7024 53.1549 60.1415 53.1549 60.6832V62.9063C53.1549 64.6094 51.7693 65.9951 50.0662 65.9951H18.9728C17.2697 65.9951 15.884 64.6096 15.884 62.9063V38.7368H53.1549V56.1629C53.1549 56.7046 53.594 57.1438 54.1357 57.1438C54.6773 57.1438 55.1165 56.7046 55.1165 56.1629V38.7368H66.9759C67.5176 38.7368 67.9567 38.2976 67.9567 37.756V20.019C67.9567 19.4773 67.5176 19.0382 66.9759 19.0382ZM42.9642 5.96343H26.0748L25.2838 2.96162H43.7551L42.9642 5.96343Z" fill="#2A46C3" stroke="#2A46C3" stroke-width="0.7"/>
<path d="M28.4554 61.4531C27.9138 61.4531 27.4746 61.8923 27.4746 62.4339C27.4746 62.9756 27.9138 63.4147 28.4554 63.4147H40.583C41.1246 63.4147 41.5638 62.9756 41.5638 62.4339C41.5638 61.8923 41.1246 61.4531 40.583 61.4531H28.4554Z" fill="#2A46C3" stroke="#2A46C3" stroke-width="0.7"/>
<path d="M37.1082 34.1859C37.1462 34.1903 37.184 34.1924 37.2216 34.1924C37.5686 34.1924 37.8935 34.0081 38.0702 33.703L41.239 28.2296L44.4077 33.703C44.6036 34.0412 44.9813 34.2304 45.3695 34.1859C45.7577 34.1407 46.0821 33.8696 46.1953 33.4955L48.8108 24.8471C48.9676 24.3286 48.6744 23.7811 48.1558 23.6243C47.6374 23.4674 47.0899 23.7606 46.9331 24.2793L44.9721 30.7631L42.0877 25.7804C41.9124 25.4776 41.589 25.2911 41.2389 25.2911C40.8888 25.2911 40.5654 25.4776 40.39 25.7804L37.5054 30.7631L35.5444 24.2793C35.3876 23.7607 34.8401 23.4675 34.3217 23.6243C33.8032 23.7811 33.51 24.3286 33.6668 24.8471L36.2823 33.4955C36.3956 33.8696 36.7201 34.1407 37.1082 34.1859Z" fill="#2A46C3" stroke="#2A46C3" stroke-width="0.7"/>
<path d="M52.8949 32.2307C52.3532 32.2307 51.9141 32.6698 51.9141 33.2115C51.9141 33.7532 52.3532 34.1923 52.8949 34.1923H61.3883C61.93 34.1923 62.3691 33.7532 62.3691 33.2115V28.8873C62.3691 28.3456 61.93 27.9065 61.3883 27.9065H53.8757V25.5439H61.3883C61.93 25.5439 62.3691 25.1048 62.3691 24.5631C62.3691 24.0214 61.93 23.5823 61.3883 23.5823H52.8949C52.3532 23.5823 51.9141 24.0214 51.9141 24.5631V28.8873C51.9141 29.429 52.3532 29.8681 52.8949 29.8681H60.4075V32.2307H52.8949Z" fill="#2A46C3" stroke="#2A46C3" stroke-width="0.7"/>
<path d="M6.66895 24.5631V33.2115C6.66895 33.7532 7.10809 34.1923 7.64976 34.1923C8.19143 34.1923 8.63057 33.7532 8.63057 33.2115V26.9615L15.4434 33.8987C15.6315 34.0902 15.8852 34.1923 16.1435 34.1923C16.2683 34.1923 16.3943 34.1685 16.5145 34.1194C16.8831 33.9686 17.124 33.6099 17.124 33.2115V24.5631C17.124 24.0214 16.6849 23.5823 16.1432 23.5823C15.6015 23.5823 15.1624 24.0214 15.1624 24.5631V30.8131L8.34953 23.8759C8.07046 23.5917 7.64714 23.5045 7.27849 23.6553C6.90983 23.8061 6.66895 24.1648 6.66895 24.5631Z" fill="#2A46C3" stroke="#2A46C3" stroke-width="0.7"/>
<path d="M29.8678 25.5439C30.4095 25.5439 30.8486 25.1048 30.8486 24.5631C30.8486 24.0214 30.4095 23.5823 29.8678 23.5823H21.3744C20.8327 23.5823 20.3936 24.0214 20.3936 24.5631V33.2115C20.3936 33.7532 20.8327 34.1923 21.3744 34.1923H29.8678C30.4095 34.1923 30.8486 33.7532 30.8486 33.2115C30.8486 32.6698 30.4095 32.2307 29.8678 32.2307H22.3552V29.8681H29.8678C30.4095 29.8681 30.8486 29.429 30.8486 28.8873C30.8486 28.3456 30.4095 27.9065 29.8678 27.9065H22.3552V25.5439H29.8678Z" fill="#2A46C3" stroke="#2A46C3" stroke-width="0.7"/>
<path d="M49.2297 55.3104C49.2297 54.7687 48.7906 54.3296 48.2489 54.3296H20.7503C20.2087 54.3296 19.7695 54.7687 19.7695 55.3104C19.7695 55.8521 20.2087 56.2912 20.7503 56.2912H48.2489C48.7906 56.2912 49.2297 55.8521 49.2297 55.3104Z" fill="#2A46C3" stroke="#2A46C3" stroke-width="0.7"/>
<path d="M48.2486 42.5916H44.1664C43.6247 42.5916 43.1855 43.0307 43.1855 43.5724C43.1855 44.114 43.6247 44.5532 44.1664 44.5532H48.2486C48.7903 44.5532 49.2294 44.114 49.2294 43.5724C49.2294 43.0307 48.7903 42.5916 48.2486 42.5916Z" fill="#2A46C3" stroke="#2A46C3" stroke-width="0.7"/>
<path d="M20.7503 44.5532H39.6263C40.1679 44.5532 40.6071 44.114 40.6071 43.5724C40.6071 43.0307 40.1679 42.5916 39.6263 42.5916H20.7503C20.2087 42.5916 19.7695 43.0307 19.7695 43.5724C19.7695 44.114 20.2087 44.5532 20.7503 44.5532Z" fill="#2A46C3" stroke="#2A46C3" stroke-width="0.7"/>
<path d="M20.745 50.3803H44.3203C44.862 50.3803 45.3011 49.9412 45.3011 49.3995C45.3011 48.8578 44.862 48.4187 44.3203 48.4187H20.745C20.2033 48.4187 19.7642 48.8578 19.7642 49.3995C19.7642 49.9412 20.2033 50.3803 20.745 50.3803Z" fill="#2A46C3" stroke="#2A46C3" stroke-width="0.7"/>
</svg>
