<svg width="56" height="57" viewBox="0 0 56 57" fill="none" xmlns="http://www.w3.org/2000/svg">
<path d="M32.0818 12.9002L38.6281 6.35385C40.0997 4.88226 42.0559 4.07194 44.1369 4.07194C46.2179 4.07194 48.1744 4.88226 49.6457 6.35385C51.117 7.82518 51.9276 9.78161 51.9276 11.8624C51.9276 13.9434 51.1173 15.8998 49.6457 17.3712L36.5528 30.4641C33.5154 33.5015 28.5726 33.5015 25.5352 30.4641C24.7398 29.6692 23.4512 29.669 22.6558 30.4643C21.8607 31.2595 21.861 32.5486 22.6558 33.3435C24.9684 35.6561 28.0061 36.812 31.044 36.812C34.0817 36.812 37.1193 35.6558 39.4319 33.3435L52.5248 20.2506C54.7655 18.0099 55.9993 15.0309 55.9993 11.8624C55.9993 8.69386 54.7655 5.71483 52.5248 3.47472C50.2845 1.23407 47.3054 0 44.1369 0C40.9684 0 37.9894 1.23407 35.7487 3.47445L29.2024 10.0208C28.4073 10.8162 28.4073 12.1051 29.2024 12.9002C29.9975 13.6947 31.2867 13.6947 32.0818 12.9002Z" fill="#EA2D2C"/>
<path d="M23.9124 43.1045L17.3661 49.6508C15.8945 51.1224 13.9383 51.9328 11.8573 51.9328C9.77625 51.9328 7.81982 51.1224 6.34849 49.6508C3.31082 46.6134 3.31082 41.6709 6.34849 38.6333L19.4414 25.5403C20.9127 24.069 22.8692 23.2587 24.9502 23.2587C27.0312 23.2587 28.9877 24.069 30.459 25.5406C31.2541 26.3355 32.5433 26.3355 33.3381 25.5406C34.1332 24.7452 34.1332 23.4563 33.3381 22.6612C31.0977 20.4208 28.1184 19.1868 24.9499 19.1868C21.7814 19.1868 18.8024 20.4208 16.562 22.6612L3.46909 35.7539C-1.15636 40.3793 -1.15636 47.9051 3.46909 52.5302C5.70947 54.7709 8.6885 56.005 11.857 56.005C15.0255 56.005 18.0046 54.7709 20.2452 52.5305L26.7915 45.9842C27.5866 45.1888 27.5866 43.8999 26.7915 43.1048C25.9967 42.31 24.7075 42.31 23.9124 43.1045Z" fill="#EA2D2C"/>
</svg>
