<svg width="78" height="70" viewBox="0 0 78 70" fill="none" xmlns="http://www.w3.org/2000/svg">
<path d="M25.002 12.6939C26.8213 13.2928 28.4245 14.3662 29.6362 15.7957L31.7982 18.3627C32.0698 18.6853 32.5004 18.8262 32.9104 18.7268C33.3203 18.6272 33.6384 18.3043 33.7318 17.8931L34.4798 14.602C35.9646 8.00853 42.132 3.22287 49.1446 3.22287H49.2708C53.01 3.24702 56.6221 4.68304 59.4415 7.26614C62.2507 9.84005 63.9161 13.2275 64.1315 16.8101C64.2783 19.0646 63.8698 21.29 62.9186 23.4217L61.9575 25.5607C61.8103 25.8882 61.8305 26.2665 62.0114 26.5764C62.1924 26.8865 62.5118 27.09 62.8694 27.1229L65.1893 27.3364C66.3051 27.4418 67.3855 27.712 68.4007 28.1401C68.5416 28.1996 68.688 28.2277 68.8319 28.2277C69.2655 28.2277 69.6776 27.9724 69.8566 27.5477C70.095 26.9822 69.8298 26.3304 69.2642 26.092C68.0402 25.576 66.7394 25.2502 65.3956 25.1233L64.6228 25.0523L64.9472 24.3301C66.048 21.8629 66.5198 19.2841 66.3497 16.6711C65.8341 8.08751 58.1789 1.05764 49.2779 1H49.1446C41.1019 1 34.0225 6.51516 32.3119 14.1114L32.0594 15.2224L31.3339 14.3611C29.8549 12.6162 27.9057 11.3096 25.6969 10.5824C25.114 10.3911 24.4859 10.7075 24.2938 11.2904C24.1019 11.8737 24.4189 12.502 25.002 12.6939Z" fill="#2A46C3" stroke="#2A46C3" stroke-width="0.7"/>
<path d="M74.1503 29.7405C73.7625 29.2646 73.0625 29.1931 72.5867 29.5809C72.1108 29.9685 72.0394 30.6687 72.4271 31.1445C73.8788 32.9262 74.6461 35.0734 74.6461 37.3534C74.6461 39.3088 74.2424 42.1462 72.3193 44.5586C69.9012 47.5921 65.7054 49.1303 59.8484 49.1303L44.04 49.1301V29.116C44.04 28.5021 43.5424 28.0047 42.9286 28.0047H34.94C34.3263 28.0047 33.8287 28.5021 33.8287 29.116V49.1298L13.8298 49.1297C7.5788 49.1298 3.22272 42.9233 3.22272 37.353C3.22272 33.1624 5.9823 29.3713 10.0933 27.9178L11.588 27.3832C12.1375 27.1867 12.4412 26.5987 12.2837 26.037L11.8558 24.5097C11.3072 22.574 11.3794 20.6365 12.0688 18.7543C13.4176 15.111 16.7869 12.5394 20.6525 12.2029C21.2639 12.1497 21.7166 11.6109 21.6633 10.9994C21.6101 10.3878 21.07 9.93366 20.4598 9.98864C15.742 10.3992 11.6302 13.5371 9.98304 17.9863C9.12774 20.3213 9.03824 22.7199 9.71632 25.1126L9.86391 25.6394L9.34838 25.8237C4.35497 27.5892 1 32.2223 1 37.353C1 40.6859 2.28547 44.1284 4.52686 46.7979C6.99289 49.7348 10.2967 51.3524 13.8298 51.3524L33.8287 51.3525V56.8356H28.7406C28.291 56.8356 27.8859 57.1063 27.7138 57.5216C27.5418 57.937 27.6369 58.4149 27.9548 58.7329L38.1486 68.9265C38.3655 69.1435 38.65 69.252 38.9344 69.252C39.2188 69.252 39.5033 69.1435 39.7202 68.9265L49.9139 58.7329C50.2317 58.4149 50.3269 57.937 50.1548 57.5216C49.9828 57.1063 49.5775 56.8356 49.1281 56.8356H44.04V51.3527L59.8484 51.3528C66.4158 51.3528 71.1964 49.533 74.0574 45.9441C76.381 43.0292 76.8688 39.6636 76.8688 37.3534C76.8688 34.5559 75.9287 31.9235 74.1503 29.7405ZM46.4451 59.0584L38.9344 66.569L31.4237 59.0583H34.94C35.5538 59.0583 36.0514 58.5608 36.0514 57.9469V30.2274H41.8173V57.9469C41.8173 58.5608 42.3149 59.0583 42.9286 59.0583H46.4451V59.0584Z" fill="#2A46C3" stroke="#2A46C3" stroke-width="0.7"/>
</svg>
