<svg width="78" height="61" viewBox="0 0 78 61" fill="none" xmlns="http://www.w3.org/2000/svg">
<path d="M58.9667 24.3071H44.1496V21.0637C44.1496 20.4498 43.6522 19.9524 43.0383 19.9524H40.0269V15.3684C40.0269 13.7898 41.3114 12.5054 42.8901 12.5054C45.6944 12.5054 47.9758 10.224 47.9758 7.41951V2.11136C47.9758 1.49744 47.4784 1 46.8645 1C46.2505 1 45.7531 1.49744 45.7531 2.11136V7.41936C45.7531 8.99808 44.4688 10.2825 42.8901 10.2825C40.0856 10.2825 37.8042 12.5639 37.8042 15.3682V19.9522H34.8308C34.2169 19.9522 33.7195 20.4497 33.7195 21.0636V24.307H18.9022C9.03083 24.3071 1 32.338 1 42.2092C1 47.7936 3.53642 52.9578 7.95904 56.378C8.44433 56.7538 9.14256 56.6644 9.51805 56.1787C9.89354 55.6933 9.80449 54.9953 9.31875 54.6197C5.44455 51.6236 3.22272 47.1002 3.22272 42.2092C3.22272 33.5634 10.2564 26.5297 18.9021 26.5297H25.7423L29.1381 33.2256C29.3274 33.599 29.7106 33.8341 30.1292 33.8341H36.3295C36.9434 33.8341 37.4409 33.3367 37.4409 32.7228C37.4409 32.1089 36.9434 31.6114 36.3295 31.6114H30.8117L28.2344 26.5297H49.5965L47.0192 31.6114H41.5013C40.8874 31.6114 40.39 32.1089 40.39 32.7228C40.39 33.3367 40.8874 33.8341 41.5013 33.8341H47.7017C48.1203 33.8341 48.5035 33.5988 48.6927 33.2256L52.0886 26.5297H58.9666C67.6124 26.5297 74.6461 33.5634 74.6461 42.2092C74.6461 50.8548 67.6124 57.8886 58.9666 57.8886C53.2231 57.8886 47.945 54.753 45.1918 49.7054C44.9971 49.3484 44.6229 49.1263 44.2162 49.1263H33.6525C33.2457 49.1263 32.8716 49.3484 32.6769 49.7054C29.9236 54.7529 24.6454 57.8886 18.9019 57.8886C17.0107 57.8886 15.1626 57.5557 13.4087 56.8994C12.8338 56.6843 12.1935 56.9761 11.9783 57.5509C11.7633 58.1258 12.0549 58.7661 12.6297 58.9812C14.6336 59.7312 16.744 60.1113 18.9021 60.1113C25.237 60.1113 31.0756 56.7708 34.2983 51.349H43.5705C46.7932 56.7708 52.6318 60.1113 58.9666 60.1113C68.8378 60.1113 76.8688 52.0804 76.8688 42.2092C76.8688 32.338 68.838 24.3071 58.9667 24.3071ZM41.9268 24.3071H35.9419V22.1751H41.9268V24.3071Z" fill="#2A46C3" stroke="#2A46C3" stroke-width="0.7"/>
<path d="M63.0454 42.0896C65.4252 42.0896 67.3612 40.1536 67.3612 37.7738C67.3612 35.3939 65.4252 33.4579 63.0454 33.4579C60.6655 33.4579 58.7295 35.3939 58.7295 37.7738C58.7295 40.1536 60.6655 42.0896 63.0454 42.0896ZM63.0454 35.6806C64.1995 35.6806 65.1385 36.6196 65.1385 37.7738C65.1385 38.9278 64.1995 39.8669 63.0454 39.8669C61.8912 39.8669 60.9522 38.9278 60.9522 37.7738C60.9522 36.6196 61.8912 35.6806 63.0454 35.6806Z" fill="#2A46C3" stroke="#2A46C3" stroke-width="0.7"/>
<path d="M55.5991 42.3285C53.2192 42.3285 51.2832 44.2645 51.2832 46.6444C51.2832 49.0242 53.2192 50.9602 55.5991 50.9602C57.9789 50.9602 59.9149 49.0242 59.9149 46.6444C59.9149 44.2645 57.9789 42.3285 55.5991 42.3285ZM55.5991 48.7375C54.4449 48.7375 53.5059 47.7985 53.5059 46.6444C53.5059 45.4902 54.4449 44.5512 55.5991 44.5512C56.7532 44.5512 57.6922 45.4902 57.6922 46.6444C57.6922 47.7985 56.7532 48.7375 55.5991 48.7375Z" fill="#2A46C3" stroke="#2A46C3" stroke-width="0.7"/>
<path d="M15.2288 49.8488C15.2288 50.4627 15.7262 50.9602 16.3401 50.9602H21.4638C22.0777 50.9602 22.5751 50.4627 22.5751 49.8488V45.8821H26.5419C27.1559 45.8821 27.6533 45.3847 27.6533 44.7708V39.6473C27.6533 39.0334 27.1559 38.5359 26.5419 38.5359H22.5751V34.5692C22.5751 33.9553 22.0777 33.4579 21.4638 33.4579H16.3403C15.7263 33.4579 15.2289 33.9553 15.2289 34.5692V38.5359H11.2622C10.6483 38.5359 10.1509 39.0334 10.1509 39.6473V44.7708C10.1509 45.3847 10.6483 45.8821 11.2622 45.8821H15.2289V49.8488H15.2288ZM12.3736 43.6594V40.7586H16.3403C16.9542 40.7586 17.4516 40.2612 17.4516 39.6473V35.6806H20.3524V39.6473C20.3524 40.2612 20.8499 40.7586 21.4638 40.7586H25.4306V43.6594H21.4638C20.8499 43.6594 20.3524 44.1569 20.3524 44.7708V48.7374H17.4516V44.7708C17.4516 44.1569 16.9542 43.6594 16.3403 43.6594H12.3736Z" fill="#2A46C3" stroke="#2A46C3" stroke-width="0.7"/>
</svg>
