<svg width="81" height="81" viewBox="0 0 81 81" fill="none" xmlns="http://www.w3.org/2000/svg">
<path d="M79.5475 15.0906L65.9093 1.45236C65.5961 1.1376 65.1594 0.975587 64.7181 1.00336C64.2753 1.03268 63.8664 1.25023 63.5964 1.60203L60.3932 5.7634C55.664 4.92094 51.0243 6.51019 47.2257 10.3028L44.1768 13.2267C44.041 13.1496 40.3595 10.8382 39.6868 10.4771C31.9288 6.31578 29.704 5.68471 22.6866 5.64767C22.0216 5.64459 21.2362 5.72482 20.636 5.80197L17.4035 1.60203C17.1335 1.25023 16.7246 1.03268 16.2818 1.00336C15.8389 0.974044 15.4038 1.1376 15.0906 1.45236L1.45236 15.0906C1.1376 15.4038 0.974044 15.8374 1.00336 16.2802C1.03268 16.7231 1.25023 17.1335 1.60203 17.4035L5.7634 20.6067C4.92094 25.3359 6.51019 29.9755 10.3028 33.7743L20.7778 44.6954C21 46.1736 21.989 52.3871 22.1834 53.4409C22.364 54.4053 22.5769 55.4915 22.796 56.226C24.0489 60.3703 24.9716 63.052 26.2584 65.3433C27.4943 67.5389 28.9601 69.193 31.4026 71.6617C31.8964 72.157 32.4627 72.6137 32.9009 72.9563L32.961 73.0026L32.2775 78.2579C32.2204 78.6976 32.3546 79.142 32.6478 79.4753C32.941 79.8086 33.3637 79.9999 33.8066 79.9999H53.095C53.5378 79.9999 53.9606 79.8086 54.2537 79.4753C54.5469 79.142 54.6811 78.6976 54.6241 78.2579L53.9467 73.0504C54.9558 72.3453 55.86 71.5198 56.6345 70.5971C57.1807 69.946 57.0959 68.9708 56.4432 68.4231C56.1655 68.1901 55.8137 68.062 55.4526 68.062C54.9944 68.062 54.5639 68.2626 54.2707 68.6128C53.5841 69.4291 52.771 70.145 51.8483 70.7421C51.848 70.7423 51.8476 70.7424 51.8475 70.7426L35.1136 70.7622C34.9501 70.6403 33.8299 69.7269 33.5969 69.4908C31.3488 67.2196 30.0126 65.7198 28.9479 63.8297C27.9512 62.0645 27.0856 59.7609 25.7509 55.3341C25.6229 54.9206 25.4254 54.0041 25.2186 52.8793C24.7094 50.1251 23.3732 41.1697 23.3732 41.1497C23.3732 40.9429 23.5383 40.7655 23.742 40.7562C23.8299 40.75 23.9163 40.747 24.0058 40.747C25.7802 40.747 27.3232 42.0122 27.675 43.7557L29.7302 53.8714C29.8753 54.5873 30.511 55.1073 31.2408 55.1073C31.2917 55.1073 31.3442 55.1042 31.3966 55.0996C31.7777 55.061 32.128 54.8836 32.3857 54.5997C32.6433 54.3142 32.7853 53.947 32.7853 53.5643V21.3163C32.7853 20.7963 32.989 20.3057 33.3562 19.9338C33.7311 19.5604 34.2079 19.3629 34.7325 19.3629C35.8036 19.3644 36.6774 20.2388 36.6811 21.3126C36.6811 21.3138 36.681 49.1472 36.681 49.1472C36.681 49.9993 37.3717 50.6901 38.2239 50.6901C39.0761 50.6901 39.7669 49.9993 39.7669 49.1472L39.7672 17.6118C39.7672 17.0841 39.9647 16.6058 40.3381 16.2293C40.713 15.8575 41.4058 15.6708 41.9304 15.6708C42.3702 15.7201 42.7682 15.9207 43.0923 16.2586C43.228 16.4021 43.3422 16.561 43.4302 16.7323C43.5829 17.0255 43.6632 17.3526 43.6632 17.6905L43.6628 49.1472C43.6628 49.9993 44.3154 50.6901 45.1674 50.6901C46.0194 50.6901 46.6719 49.9993 46.6719 49.1472V21.3223C46.6719 21.3203 46.7107 21.3183 46.7107 21.3163C46.7107 20.7963 46.9336 20.3041 47.3007 19.9338C47.6756 19.5604 48.162 19.3629 48.6866 19.3629C49.7589 19.3644 50.6386 20.2409 50.6401 21.3163L50.2437 49.1171C50.2272 49.9689 50.9055 50.6731 51.7575 50.6896C51.7677 50.6898 51.7785 50.69 51.7887 50.69C52.6268 50.69 53.334 50.0188 53.3503 49.1769L53.7696 28.6716V28.6423C53.7696 28.1223 53.9539 27.6316 54.3212 27.2598C54.6977 26.8864 55.1632 26.6889 55.6893 26.6889C56.754 26.6904 57.624 27.5622 57.6317 28.6299L57.0507 56.3892C57.0414 56.8012 57.1929 57.1915 57.4768 57.4893C57.7623 57.7871 58.1459 57.9553 58.5578 57.9646C58.9744 57.9723 59.3707 57.8149 59.6685 57.5248C59.9601 57.2394 60.125 56.8598 60.1327 56.454L60.2701 49.8779C60.2809 49.8702 62.3892 48.103 63.2438 47.3658C66.4266 44.6199 69.2808 41.9082 70.5105 39.7115C74.8941 31.8717 75.3153 29.6406 75.3523 22.6864C75.3554 22.0245 75.2752 21.2361 75.1981 20.6358L79.398 17.4033C79.7498 17.1333 79.9674 16.7244 79.9967 16.2816C80.0258 15.8372 79.8623 15.4037 79.5475 15.0906ZM35.9638 73.8469L50.9367 73.8293L51.3379 76.9137H35.5642L35.9638 73.8469ZM4.8765 16.0301L16.0304 4.87604L17.9159 7.32765L7.34061 17.9278L4.8765 16.0301ZM38.1548 14.0506C37.4281 14.7758 36.9467 15.6914 36.763 16.7021C36.1227 16.4197 35.4392 16.2753 34.7325 16.2753H34.731C34.0536 16.2753 33.3948 16.4089 32.7714 16.6728C32.1696 16.9289 31.6311 17.2919 31.1729 17.7533C30.7115 18.2131 30.3489 18.7533 30.0944 19.355C29.8321 19.9784 29.6994 20.6389 29.6994 21.3163V40.7221C29.0822 39.7979 28.249 39.028 27.2738 38.4956C26.2755 37.9494 25.1445 37.6609 24.0043 37.6609C23.8438 37.6609 23.6834 37.6671 23.526 37.6779C22.6357 37.7411 21.8148 38.1361 21.2131 38.7872C20.8983 39.1282 20.6576 39.5232 20.5018 39.9491L12.5185 31.6264C12.5108 31.6186 12.5031 31.6109 12.4953 31.6032C9.33396 28.4418 8.05948 24.6048 8.87848 20.7554L20.6999 8.90625C21.2584 8.82756 22.0835 8.73205 22.671 8.7336C28.8737 8.766 30.5895 9.09928 38.2285 13.1958C38.3751 13.2745 38.5572 13.3825 38.7778 13.5183C38.556 13.6772 38.3492 13.8547 38.1548 14.0506ZM67.8165 38.2056C66.6655 40.2623 63.1014 43.4454 60.3565 45.7784L60.7129 28.6747V28.6423C60.7129 27.2968 60.1883 25.9936 59.2394 25.0416C58.2889 24.0896 57.0252 23.527 55.6797 23.527H55.6767C55.0039 23.527 54.3869 23.734 53.7697 23.9947V21.3161C53.7697 19.9707 53.2258 18.7045 52.2769 17.7525C51.3263 16.8008 50.0418 16.2753 48.6963 16.2753H48.6948C47.9865 16.2753 47.2999 16.4212 46.655 16.7082C46.5732 16.2886 46.442 15.8848 46.2631 15.5021L49.3737 12.5182L49.3968 12.4952C52.5582 9.33381 56.3952 8.05948 60.2446 8.87848L72.0938 20.6999C72.1725 21.2584 72.2681 22.0835 72.2666 22.6712C72.2339 28.8598 72.0643 30.6096 67.8165 38.2056ZM73.6721 17.9156L63.0719 7.3403L64.9698 4.87619L76.1237 16.0303L73.6721 17.9156Z" fill="#EA2D2C" stroke="#EA2D2C" stroke-width="0.3"/>
<path d="M58.2695 64.8925C59.1217 64.8925 59.8125 64.2017 59.8125 63.3495C59.8125 62.4974 59.1217 61.8066 58.2695 61.8066C57.4174 61.8066 56.7266 62.4974 56.7266 63.3495C56.7266 64.2017 57.4174 64.8925 58.2695 64.8925Z" fill="#EA2D2C" stroke="#EA2D2C" stroke-width="0.3"/>
</svg>
