<svg width="165" height="38" viewBox="0 0 165 38" fill="none" xmlns="http://www.w3.org/2000/svg">
<path d="M165 37.291H0V0H165V37.291ZM1.70279 35.5882H163.297V1.70279H1.70279V35.5882Z" fill="white"/>
<path d="M37.8019 0.85144H36.0991V36.4397H37.8019V0.85144Z" fill="white"/>
<path fill-rule="evenodd" clip-rule="evenodd" d="M15.5304 23.4207C15.5304 22.822 15.5304 22.1899 15.5304 21.5912C15.5304 21.4249 15.5612 21.2253 15.6228 21.1588C15.746 21.059 15.8693 21.2586 15.9617 21.3584C16.9167 22.323 17.9642 23.1879 17.6561 24.8843C17.5329 25.5828 17.9026 26.2148 18.642 26.1483C19.3814 26.115 19.4738 25.483 19.5354 24.7512C19.597 23.6535 19.2273 22.9217 18.5187 22.1567C16.3006 19.8615 14.144 17.4665 11.9567 15.1048C10.6319 13.6745 10.5703 11.6454 11.8026 10.2816C13.0658 8.88453 14.9758 8.88453 16.3314 10.3149C17.9334 12.0113 19.5662 13.741 21.1374 15.4707C21.5995 15.9697 21.8768 15.9364 22.2773 15.4707C22.8626 14.7722 23.5404 14.1069 24.1566 13.4084C24.5571 12.9759 24.6803 12.4437 24.2182 11.978C23.7561 11.4791 23.2631 11.5123 22.801 11.978C22.7086 12.0778 22.5854 12.2441 22.4621 12.3772C21.4455 13.5082 21.4763 13.5082 20.4288 12.3772C20.0591 11.978 19.9667 11.7119 20.398 11.3128C20.7985 10.9136 21.1374 10.4812 21.5379 10.1153C22.8626 8.91779 24.7111 9.01758 25.8818 10.3814C26.9909 11.6454 26.9601 13.7077 25.7894 15.005C24.6187 16.3023 23.4172 17.5331 22.2773 18.8303C21.8152 19.3293 21.5379 19.2628 21.1374 18.8303C19.1657 16.6682 17.194 14.5393 15.2223 12.4105C15.0067 12.1776 14.791 11.9448 14.5753 11.7785C14.1748 11.4458 13.8051 11.5456 13.4663 11.9115C13.1274 12.2441 13.0041 12.6766 13.2814 13.109C13.4355 13.3751 13.6511 13.608 13.8668 13.8408C16.2698 16.4354 18.642 19.0299 21.0758 21.5579C21.6611 22.1567 21.9692 22.7887 21.8768 23.6535C21.7844 24.3188 21.8152 25.0173 21.7227 25.6494C21.4763 27.3791 20.1515 28.5433 18.5187 28.4435C16.9475 28.377 15.746 27.113 15.592 25.3832C15.5304 24.7512 15.5612 24.086 15.5304 23.4207C15.5612 23.4207 15.5612 23.4207 15.5304 23.4207Z" fill="white"/>
<path d="M56.2771 12.8564H54.7446L48.87 24.7759H50.7431L52.1904 21.7109H58.7462L60.1935 24.7759H62.1517L56.3623 13.0267L56.2771 12.8564ZM58.065 20.2636H52.7864L55.4257 14.8146L58.065 20.2636Z" fill="white"/>
<path d="M72.4534 13.6223C71.4317 13.1115 70.2397 12.8561 68.8775 12.8561H63.5989V24.7756H68.8775C70.2397 24.7756 71.4317 24.5202 72.4534 24.0093C73.475 23.4985 74.3264 22.8174 74.8373 21.8808C75.4332 20.9443 75.6887 19.9226 75.6887 18.8158C75.6887 17.6239 75.4332 16.6022 74.8373 15.7508C74.2413 14.8143 73.475 14.048 72.4534 13.6223ZM65.3868 14.3034H68.8775C69.8992 14.3034 70.8357 14.4737 71.602 14.8994C72.3682 15.24 72.9642 15.836 73.3899 16.5171C73.8156 17.1982 74.071 17.9644 74.071 18.8158C74.071 19.6672 73.8156 20.4335 73.3899 21.1146C72.9642 21.7957 72.3682 22.3065 71.602 22.7322C70.8357 23.0728 69.8992 23.3282 68.8775 23.3282H65.3868V14.3034Z" fill="white"/>
<path d="M85.9907 14.8142C86.757 14.3885 87.6084 14.2182 88.6301 14.2182C90.0774 14.2182 91.2694 14.6439 92.2059 15.4953L92.3762 15.6656L93.483 14.6439L93.3127 14.4737C92.7167 13.8777 92.0356 13.452 91.2694 13.1966C90.418 12.9412 89.5666 12.7709 88.6301 12.7709C87.353 12.7709 86.161 13.0263 85.1393 13.5371C84.1177 14.048 83.2663 14.8142 82.7554 15.6656C82.1595 16.6021 81.9041 17.6238 81.9041 18.7306C81.9041 19.8374 82.1595 20.9442 82.7554 21.7956C83.3514 22.7322 84.1177 23.4133 85.1393 23.9241C86.161 24.435 87.353 24.6904 88.5449 24.6904C89.3963 24.6904 90.3328 24.5201 91.0991 24.2647C91.9505 24.0093 92.6316 23.6687 93.2276 23.1579L93.3127 23.0727V18.3901H91.6099V22.3916C90.7585 22.9025 89.7369 23.1579 88.5449 23.1579C87.6084 23.1579 86.6719 22.9876 85.9056 22.5619C85.1394 22.1362 84.5434 21.6254 84.1177 20.9442C83.692 20.2631 83.4366 19.4969 83.4366 18.6455C83.4366 17.7941 83.692 17.0278 84.1177 16.3467C84.5434 15.7507 85.2245 15.2399 85.9907 14.8142Z" fill="white"/>
<path d="M98.2509 19.4118H104.636V17.9644H98.2509V14.3034H105.488V12.8561H96.5481V24.6904H105.743V23.2431H98.2509V19.4118Z" fill="white"/>
<path d="M116.215 12.8561L112.044 19.0713L107.957 12.8561H105.999L111.192 20.6038V24.6904H112.895V20.6038L118.003 12.8561H116.215Z" fill="white"/>
<path d="M125.495 18.7306C124.9 18.5603 124.218 18.3049 123.282 18.1347C122.516 17.9644 121.92 17.7941 121.494 17.6238C121.068 17.4535 120.728 17.2833 120.472 17.0278C120.217 16.7724 120.132 16.517 120.132 16.0913C120.132 15.5805 120.387 15.1548 120.898 14.7291C121.409 14.3885 122.175 14.2182 123.197 14.2182C123.708 14.2182 124.304 14.3034 124.9 14.4737C125.495 14.6439 126.006 14.8994 126.517 15.1548L126.687 15.2399L127.283 13.8777L127.113 13.7925C126.602 13.452 126.006 13.1966 125.325 13.0263C124.644 12.856 123.878 12.7709 123.197 12.7709C122.175 12.7709 121.239 12.9412 120.557 13.1966C119.876 13.5371 119.28 13.8777 118.94 14.3885C118.599 14.8994 118.429 15.4953 118.429 16.0913C118.429 16.8576 118.684 17.4535 119.11 17.9644C119.536 18.3901 120.047 18.7306 120.643 18.9009C121.239 19.0712 122.005 19.3266 122.856 19.582C123.622 19.7523 124.218 19.9226 124.644 20.0929C125.07 20.2631 125.41 20.4334 125.666 20.6888C125.921 20.9442 126.006 21.1997 126.006 21.6254C126.006 22.1362 125.751 22.5619 125.24 22.9025C124.729 23.243 123.963 23.4133 122.856 23.4133C122.09 23.4133 121.324 23.3281 120.643 23.0727C119.961 22.8173 119.365 22.4768 118.94 22.1362L118.769 21.9659L118.088 23.243L118.174 23.3281C118.684 23.839 119.365 24.1795 120.217 24.435C121.068 24.6904 122.005 24.8607 122.941 24.8607C123.963 24.8607 124.9 24.6904 125.581 24.435C126.347 24.1795 126.858 23.7538 127.198 23.243C127.539 22.7322 127.709 22.1362 127.709 21.5402C127.709 20.774 127.454 20.178 127.028 19.7523C126.602 19.2415 126.091 18.9009 125.495 18.7306Z" fill="white"/>
<path d="M131.796 19.4118H138.181V17.9644H131.796V14.3034H138.947V12.8561H130.093V24.6904H139.203V23.2431H131.796V19.4118Z" fill="white"/>
<path d="M149.335 20.6889C150.186 20.4335 150.782 19.9226 151.208 19.4118C151.719 18.7307 151.974 17.9644 151.974 17.0279C151.974 15.7508 151.463 14.7291 150.527 13.9629C149.59 13.1966 148.313 12.8561 146.695 12.8561H141.843V24.7756H143.545V21.1146H146.695C147.036 21.1146 147.291 21.1146 147.547 21.1146L150.356 24.7756H152.315L149.335 20.6889ZM143.63 14.3034H146.695C147.887 14.3034 148.739 14.5589 149.42 14.9846C150.016 15.4103 150.271 16.0914 150.271 16.9428C150.271 17.7942 150.016 18.3901 149.42 18.901C148.824 19.4118 147.887 19.5821 146.695 19.5821H143.63V14.3034Z" fill="white"/>
</svg>
