<svg width="84" height="84" viewBox="0 0 84 84" fill="none" xmlns="http://www.w3.org/2000/svg">
<path d="M28.309 64.2923C28.2876 64.1873 28.2565 64.0839 28.2155 63.9839C28.1744 63.8854 28.1236 63.7903 28.0645 63.7017C28.0055 63.6114 27.9366 63.5278 27.8611 63.4523C27.7856 63.3768 27.7019 63.3079 27.6117 63.2489C27.5231 63.1898 27.428 63.1389 27.3279 63.0979C27.2294 63.0569 27.1261 63.0241 27.0211 63.0044C26.8094 62.9617 26.5912 62.9617 26.3812 63.0044C26.2762 63.0241 26.1729 63.0569 26.0728 63.0979C25.9744 63.1389 25.8792 63.1898 25.7906 63.2489C25.7004 63.3079 25.6167 63.3768 25.5412 63.4523C25.4658 63.5278 25.3969 63.6114 25.3378 63.7017C25.2771 63.7903 25.2279 63.8854 25.1869 63.9839C25.1459 64.0839 25.113 64.1873 25.0934 64.2923C25.072 64.3973 25.0605 64.5056 25.0605 64.6122C25.0605 64.7188 25.072 64.8271 25.0934 64.9321C25.113 65.0371 25.1459 65.1405 25.1869 65.2389C25.2279 65.339 25.2771 65.4342 25.3378 65.5228C25.3969 65.613 25.4658 65.6967 25.5412 65.7721C25.6167 65.8476 25.7004 65.9165 25.7906 65.9756C25.8792 66.0348 25.9744 66.0856 26.0728 66.1267C26.1729 66.1677 26.2762 66.2005 26.3812 66.2202C26.4862 66.2415 26.5945 66.253 26.7012 66.253C26.8078 66.253 26.9161 66.2415 27.0211 66.2202C27.1261 66.2005 27.2294 66.1677 27.3279 66.1267C27.428 66.0856 27.5231 66.0346 27.6117 65.9756C27.7019 65.9165 27.7856 65.8476 27.8611 65.7721C27.9366 65.6967 28.0055 65.613 28.0645 65.5228C28.1236 65.4342 28.1744 65.339 28.2155 65.2389C28.2565 65.1405 28.2876 65.0371 28.309 64.9321C28.3303 64.8271 28.3418 64.7188 28.3418 64.6122C28.3418 64.5056 28.3303 64.3973 28.309 64.2923Z" fill="#EA2D2C"/>
<path d="M75.4673 64.7976C75.4609 64.7812 75.4543 64.765 75.4474 64.7489C73.9374 61.2155 70.396 59.9096 66.2048 61.341L54.775 64.5018C54.1141 62.5006 52.4658 60.7976 50.1351 59.9327C50.1207 59.9275 50.1063 59.9222 50.0917 59.9173L37.5277 55.653C36.4819 54.3013 33.2063 50.8425 27.0731 50.8425C22.787 50.8425 18.9954 53.7828 16.8262 56.9878H1.64062C0.734505 56.9878 0 57.7223 0 58.6284V79.3128C0 80.2189 0.734505 80.9534 1.64062 80.9534H11.3952C12.3014 80.9534 13.0359 80.2189 13.0359 79.3128V77.8963H17.6104C18.5165 77.8963 19.251 77.1618 19.251 76.2557V75.7835C21.9177 76.0162 22.7947 76.522 25.2439 77.9342C27.1273 79.0203 29.9739 80.6617 35.1002 82.9666C35.124 82.9773 35.1481 82.9875 35.1722 82.997C36.1561 83.384 38.0794 83.992 40.4506 83.992C42.101 83.992 43.9689 83.6972 45.8861 82.8282L71.1501 73.7825C71.1951 73.7664 71.2394 73.7483 71.2827 73.7283C73.6972 72.6175 77.2952 69.4867 75.4673 64.7976ZM9.75462 77.672H3.28124V60.2689H9.75462V77.672ZM15.9698 74.6149H13.0359V60.2689H15.9698V74.6149ZM69.9717 70.7189L44.719 79.7605C44.6968 79.7684 44.6668 79.7802 44.645 79.7891C44.6228 79.7981 44.6007 79.8076 44.5789 79.8176C41.0619 81.434 37.7188 80.4663 36.4086 79.9569C31.4569 77.7288 28.814 76.2048 26.883 75.0914C24.1983 73.5433 22.9047 72.7971 19.251 72.4954V59.2815C20.8061 56.7327 23.8219 54.1236 27.0733 54.1236C32.6491 54.1236 35.0118 57.7502 35.1046 57.8965C35.3049 58.2224 35.6129 58.468 35.975 58.5908L49.0138 63.0162C51.0962 63.7978 52.1967 65.5812 51.6909 67.3596C51.4575 68.1809 50.918 68.8621 50.1722 69.2777C49.4328 69.6896 48.578 69.7915 47.7633 69.5661L33.0645 64.908C32.2002 64.6342 31.2785 65.1126 31.0049 65.9764C30.7311 66.8402 31.2095 67.7622 32.0733 68.036L46.7976 72.7021C46.8132 72.707 46.8288 72.7118 46.8446 72.7162C47.4324 72.8834 48.0309 72.9661 48.6258 72.9661C49.7148 72.9661 50.7919 72.6887 51.7694 72.144C53.2809 71.3019 54.3738 69.9214 54.847 68.257C54.8847 68.1241 54.9182 67.9912 54.9472 67.8584L67.2655 64.4459C69.0446 63.8382 71.38 63.6192 72.4198 66.014C73.4961 68.8255 70.6988 70.3721 69.9717 70.7189Z" fill="#EA2D2C"/>
<path d="M58.9078 21.5773C58.8865 21.4723 58.8553 21.369 58.8126 21.2689C58.7716 21.1704 58.7224 21.0753 58.6617 20.9867C58.6026 20.8965 58.5337 20.8128 58.4583 20.7373C58.3828 20.6619 58.2991 20.593 58.2089 20.5339C58.1203 20.4748 58.0251 20.424 57.9267 20.383C57.8266 20.3419 57.7233 20.3091 57.6199 20.2894C57.4083 20.2468 57.19 20.2468 56.9784 20.2894C56.8734 20.3091 56.7701 20.3419 56.6716 20.383C56.5715 20.424 56.4764 20.4748 56.3878 20.5339C56.2976 20.593 56.2139 20.6619 56.1384 20.7373C56.0629 20.8128 55.994 20.8965 55.935 20.9867C55.8759 21.0753 55.8251 21.1704 55.784 21.2689C55.743 21.369 55.7102 21.4723 55.6905 21.5773C55.6692 21.6823 55.6577 21.7906 55.6577 21.8972C55.6577 22.0039 55.6692 22.1122 55.6905 22.2172C55.7102 22.3222 55.743 22.4255 55.784 22.524C55.8251 22.624 55.8759 22.7192 55.935 22.8078C55.994 22.898 56.0629 22.9817 56.1384 23.0572C56.2139 23.1326 56.2976 23.2015 56.3878 23.2606C56.4764 23.3197 56.5715 23.3705 56.6716 23.4115C56.7701 23.4526 56.8734 23.4837 56.9784 23.505C57.0834 23.5264 57.1917 23.5379 57.2983 23.5379C57.405 23.5379 57.5133 23.5264 57.6199 23.505C57.7233 23.4837 57.8266 23.4526 57.9267 23.4115C58.0251 23.3705 58.1203 23.3197 58.2089 23.2606C58.2991 23.2015 58.3828 23.1326 58.4583 23.0572C58.5337 22.9817 58.6026 22.898 58.6617 22.8078C58.7224 22.7192 58.7716 22.624 58.8126 22.524C58.8553 22.4255 58.8865 22.3222 58.9078 22.2172C58.9291 22.1122 58.939 22.0039 58.939 21.8972C58.939 21.7906 58.9291 21.6823 58.9078 21.5773Z" fill="#EA2D2C"/>
<path d="M82.359 5.5564H72.6044C71.6983 5.5564 70.9638 6.29091 70.9638 7.19702V8.61353H66.3892C65.4831 8.61353 64.7486 9.34803 64.7486 10.2541V10.7263C62.0819 10.4935 61.2049 9.98787 58.7559 8.57563C56.8725 7.48954 54.0259 5.8481 48.8994 3.5432C48.8756 3.53237 48.8517 3.52237 48.8272 3.51285C47.1586 2.85627 42.7852 1.56445 38.1142 3.68134L31.5123 6.04514L25.9475 0.480496C25.3068 -0.160165 24.268 -0.160165 23.6273 0.480496L5.35775 18.7499C4.7668 19.341 4.65343 20.3659 5.35775 21.0702L36.5766 52.2891C37.0761 52.7888 38.2459 52.9399 38.8969 52.2891L55.5762 35.6099C56.0099 35.6473 56.4599 35.6675 56.9263 35.6675C61.2126 35.6675 65.004 32.7272 67.1731 29.5224H82.359C83.2651 29.5224 83.9996 28.7879 83.9996 27.8818V7.19702C83.9996 6.29091 83.2651 5.5564 82.359 5.5564ZM24.7873 3.96074L28.5266 7.70003C27.415 8.38745 26.1299 8.75528 24.7873 8.75528C23.4444 8.75528 22.1595 8.38762 21.048 7.70003L24.7873 3.96074ZM12.5774 23.6495L8.83815 19.91L12.5774 16.1707C13.2649 17.2822 13.6327 18.5673 13.6327 19.91C13.6327 21.2527 13.265 22.5378 12.5774 23.6495ZM37.7368 48.8087L33.9982 45.07C36.2808 43.6614 39.1925 43.6614 41.4753 45.07L37.7368 48.8087ZM43.8391 42.7065C40.2137 40.0766 35.26 40.0766 31.6345 42.7065L14.9411 26.0129C16.2222 24.2509 16.9139 22.1344 16.9139 19.91C16.9139 17.6855 16.2224 15.5691 14.9411 13.8071L18.6845 10.0638C20.4465 11.345 22.5629 12.0367 24.7874 12.0367C27.0119 12.0367 29.1283 11.345 30.8904 10.0638L34.4388 13.6123C33.6732 13.7254 32.9265 13.9777 32.2302 14.3657C31.0542 15.021 30.1316 16.0022 29.557 17.1894C27.7064 17.5321 25.9931 18.428 24.6491 19.7719C21.0028 23.4183 21.0028 29.3513 24.6493 32.9977C26.4723 34.8208 28.8671 35.7324 31.2621 35.7324C33.6569 35.7324 36.0519 34.8209 37.8751 32.9977C39.0613 31.8115 39.8923 30.3537 40.3085 28.7649L45.8479 30.6449C45.2243 33.5337 45.863 36.5728 47.5858 38.9599L43.8391 42.7065ZM33.8645 26.5771C33.8789 26.5824 33.8933 26.5876 33.9079 26.5926L37.1885 27.7061C36.9408 28.8241 36.3802 29.8521 35.555 30.6775C33.1879 33.0443 29.3364 33.0446 26.9696 30.6775C24.6025 28.3106 24.6025 24.4593 26.9696 22.0922C27.5405 21.5209 28.2143 21.0745 28.9485 20.7718C29.2514 23.2921 31.0661 25.5386 33.8645 26.5771ZM49.9497 36.5957C49.3165 35.5638 48.9581 34.386 48.9015 33.1839C49.6874 33.7521 50.6478 34.3087 51.7949 34.7505L49.9497 36.5957ZM64.7484 27.2276C63.1935 29.7768 60.1777 32.3859 56.9263 32.3859C56.318 32.3859 55.7478 32.3426 55.2148 32.2655C55.2127 32.2652 55.2105 32.2648 55.2084 32.2645C51.6653 31.7498 49.7594 29.7362 49.1312 28.9388C49.0978 28.8896 48.9552 28.7031 48.934 28.6721C48.7429 28.3305 48.4295 28.0558 48.0299 27.9202L34.9857 23.4929C32.904 22.7117 31.8037 20.9292 32.308 19.1514C32.3083 19.1502 32.3087 19.1491 32.309 19.1479C32.3095 19.1466 32.3098 19.1451 32.3101 19.1438C32.5446 18.3252 33.083 17.6461 33.8272 17.2315C34.5665 16.8196 35.4211 16.7174 36.2361 16.9433L50.9349 21.6012C51.7989 21.8753 52.7209 21.3966 52.9946 20.5328C53.2682 19.669 52.79 18.747 51.9262 18.4732L40.236 14.7686L40.1339 14.6666C40.1329 14.6656 40.132 14.6645 40.1308 14.6635L34.0786 8.61123L39.2806 6.74848C39.2982 6.74208 39.3198 6.73404 39.3372 6.72698C39.3417 6.72518 39.3502 6.7219 39.3545 6.72009C39.3768 6.71107 39.3988 6.70155 39.4206 6.69155C42.9374 5.07521 46.2803 6.04268 47.5907 6.55226C52.5426 8.78038 55.1856 10.3044 57.1166 11.4178C59.8013 12.9661 61.0949 13.7121 64.7484 14.0138V27.2276ZM70.9638 26.2408H68.0298V11.8948H70.9638V26.2408ZM80.7184 26.2408H74.245V8.83764H80.7184V26.2408Z" fill="#EA2D2C"/>
</svg>
