<svg width="14" height="14" viewBox="0 0 14 14" fill="none" xmlns="http://www.w3.org/2000/svg">
<path d="M13.5064 8.16944C13.5782 7.77466 13.6167 7.3711 13.6167 6.96754C13.6167 6.07269 13.4417 5.20416 13.0969 4.38827C12.7643 3.5987 12.2865 2.88984 11.6792 2.28099C11.077 1.67569 10.363 1.19358 9.57719 0.861512C8.76159 0.515854 7.89698 0.340393 7.00437 0.340393C6.58432 0.340393 6.16252 0.380749 5.75297 0.459707C5.18628 0.158657 4.55484 0.000853079 3.91349 0C2.86862 0 1.88499 0.408823 1.1464 1.14927C0.781942 1.51276 0.492972 1.94509 0.296201 2.42123C0.099429 2.89738 -0.00124085 3.40791 1.15432e-05 3.9233C1.15432e-05 4.59005 0.171533 5.24627 0.491822 5.82529C0.427064 6.20078 0.39206 6.58504 0.39206 6.96754C0.39206 7.86239 0.567082 8.73092 0.911874 9.54681C1.24442 10.3364 1.72047 11.0452 2.3278 11.6541C2.93512 12.2629 3.64221 12.7402 4.42981 13.0736C5.24541 13.4192 6.11001 13.5947 7.00262 13.5947C7.39117 13.5947 7.77972 13.5596 8.16127 13.4912C8.74759 13.8228 9.40917 14 10.0865 14C11.1314 14 12.115 13.5929 12.8536 12.8507C13.5939 12.1103 14 11.1242 14 10.0767C14.0017 9.40995 13.8302 8.75197 13.5064 8.16944ZM11.9645 11.9594C11.4622 12.4647 10.7988 12.7384 10.0883 12.7384C9.63145 12.7384 9.18164 12.6191 8.78259 12.3928L8.3888 12.1699L7.94249 12.2489C7.63095 12.305 7.31591 12.3331 7.00437 12.3331C6.27979 12.3331 5.58145 12.191 4.91987 11.9103C4.28454 11.6418 3.71222 11.2558 3.21866 10.761C2.73008 10.2729 2.34074 9.69425 2.07227 9.05727C1.79223 8.39579 1.65222 7.6957 1.65222 6.96929C1.65222 6.66399 1.68022 6.35167 1.73273 6.04286L1.80973 5.60246L1.59271 5.21118C1.37381 4.81738 1.25875 4.37411 1.25842 3.9233C1.25842 3.21093 1.5332 2.54593 2.03551 2.04236C2.53957 1.53879 3.20291 1.26332 3.91349 1.26332C4.34933 1.2645 4.7783 1.37231 5.16315 1.57739L5.5552 1.78443L5.98925 1.70021C6.32004 1.63705 6.66133 1.60371 7.00437 1.60371C7.72896 1.60371 8.4273 1.74583 9.08713 2.02481C9.72596 2.29502 10.2965 2.68104 10.7883 3.17408C11.2819 3.66713 11.6669 4.24088 11.9365 4.87956C12.2165 5.54104 12.3565 6.24113 12.3565 6.96754C12.3565 7.29039 12.3268 7.61674 12.2673 7.94135L12.185 8.38877L12.4055 8.78531C12.6261 9.1801 12.7416 9.62752 12.7416 10.0785C12.7416 10.7926 12.4668 11.4558 11.9645 11.9594ZM8.25053 6.19727L6.70334 5.85336C6.11527 5.71826 5.43793 5.54105 5.43793 4.98484C5.43793 4.42863 5.91224 4.0391 6.76985 4.0391C8.49731 4.0391 8.33979 5.22873 9.1974 5.22873C9.64895 5.22873 10.0445 4.96202 10.0445 4.50583C10.0445 3.43903 8.33979 2.63717 6.89411 2.63717C5.32417 2.63717 3.65271 3.30568 3.65271 5.08485C3.65271 5.9411 3.95725 6.85349 5.64096 7.27635L7.73071 7.79922C8.36254 7.95538 8.52181 8.31157 8.52181 8.63441C8.52181 9.16957 7.9915 9.69244 7.03063 9.69244C5.1544 9.69244 5.41518 8.24489 4.41055 8.24489C3.959 8.24489 3.63171 8.55721 3.63171 9.00113C3.63171 9.8679 4.68184 11.0259 7.03063 11.0259C9.26565 11.0259 10.3735 9.94686 10.3735 8.49931C10.3735 7.56761 9.94474 6.57626 8.25053 6.19727Z" fill="white"/>
</svg>
