<svg width="66" height="57" viewBox="0 0 66 57" fill="none" xmlns="http://www.w3.org/2000/svg">
<path d="M63.1832 49.5906H63.1282C63.3186 49.1787 63.4249 48.7201 63.4249 48.2373V4.23743C63.4249 2.45236 61.9725 1 60.1874 1H57.0883C56.5679 1 56.1463 1.42178 56.1463 1.94203C56.1463 2.46228 56.5679 2.88405 57.0883 2.88405H60.1876C60.9338 2.88405 61.541 3.49122 61.541 4.23743V4.80265H4.76811V4.23743C4.76811 3.49122 5.37528 2.88405 6.12149 2.88405H52.6785C53.1989 2.88405 53.6205 2.46228 53.6205 1.94203C53.6205 1.42178 53.1989 1 52.6785 1H6.12149C4.33641 1 2.88405 2.45236 2.88405 4.23743V48.2373C2.88405 48.7201 2.99032 49.1787 3.18073 49.5906H3.12584C1.95371 49.5906 1 50.5442 1 51.7165C1 54.3449 3.13828 56.4833 5.76678 56.4833H8.5842C9.10457 56.4833 9.52623 56.0615 9.52623 55.5412C9.52623 55.021 9.10457 54.5992 8.5842 54.5992H5.76678C4.17727 54.5991 2.88405 53.306 2.88405 51.7165C2.88405 51.5831 2.99245 51.4747 3.12584 51.4747H24.9905L25.9685 52.4928C26.1461 52.6779 26.3914 52.7824 26.6479 52.7824H39.661C39.9175 52.7824 40.1628 52.6779 40.3404 52.4928L41.3184 51.4747H63.1831C63.3165 51.4747 63.4249 51.5831 63.4249 51.7165C63.4249 53.306 62.1317 54.5992 60.5422 54.5992H12.9356C12.4152 54.5992 11.9936 55.021 11.9936 55.5412C11.9936 56.0615 12.4152 56.4833 12.9356 56.4833H60.5422C63.1707 56.4833 65.3089 54.345 65.3089 51.7165C65.3091 50.5442 64.3554 49.5906 63.1832 49.5906ZM40.9172 49.5906C40.6609 49.5906 40.4154 49.6951 40.2378 49.8802L39.2599 50.8983H27.0493L26.0714 49.8802C25.8938 49.6951 25.6483 49.5906 25.392 49.5906H6.12149C5.37528 49.5906 4.76811 48.9835 4.76811 48.2373V47.672H30.9683C31.4886 47.672 31.9103 47.2503 31.9103 46.73C31.9103 46.2098 31.4886 45.788 30.9683 45.788H4.76811V6.6867H61.541V45.788H35.3408C34.8204 45.788 34.3988 46.2098 34.3988 46.73C34.3988 47.2503 34.8204 47.672 35.3408 47.672H61.541V48.2373C61.541 48.9835 60.9338 49.5906 60.1876 49.5906H40.9172Z" fill="#2A46C3" stroke="#2A46C3" stroke-width="0.7"/>
<path d="M54.6945 38.8664V22.3382C54.6945 21.8179 54.2729 21.3962 53.7525 21.3962C53.2321 21.3962 52.8105 21.8179 52.8105 22.3382V37.9243H13.4983V15.1121H52.8105V17.9382C52.8105 18.4584 53.2321 18.8802 53.7525 18.8802C54.2729 18.8802 54.6945 18.4584 54.6945 17.9382V14.1701C54.6945 13.6498 54.2729 13.228 53.7525 13.228H12.5563C12.0359 13.228 11.6143 13.6498 11.6143 14.1701V38.8664C11.6143 39.3866 12.0359 39.8084 12.5563 39.8084H53.7525C54.2729 39.8084 54.6945 39.3866 54.6945 38.8664Z" fill="#2A46C3" stroke="#2A46C3" stroke-width="0.7"/>
<path d="M30.9201 21.5065C30.6298 21.3247 30.2636 21.3147 29.9639 21.4806C29.664 21.6465 29.478 21.9621 29.478 22.3048V30.7317C29.478 31.0743 29.664 31.39 29.9639 31.5559C30.106 31.6345 30.2632 31.6737 30.4201 31.6737C30.5939 31.6737 30.7676 31.6256 30.9201 31.53L37.6455 27.3166C37.9205 27.1443 38.0875 26.8427 38.0875 26.5183C38.0875 26.1939 37.9206 25.8923 37.6455 25.72L30.9201 21.5065ZM31.3621 29.0299V24.0066L35.3711 26.5183L31.3621 29.0299Z" fill="#2A46C3" stroke="#2A46C3" stroke-width="0.7"/>
</svg>
