<svg width="78" height="68" viewBox="0 0 78 68" fill="none" xmlns="http://www.w3.org/2000/svg">
<path d="M74.4877 58.653H74.4228C74.6479 58.1642 74.7734 57.6201 74.7734 57.0472V4.84123C74.7734 2.72308 73.0571 1 70.9475 1H67.2848C66.6699 1 66.1715 1.50029 66.1715 2.11772C66.1715 2.73515 66.6699 3.23544 67.2848 3.23544H70.9475C71.8293 3.23544 72.5469 3.95585 72.5469 4.84123V5.51186H5.45312V4.84123C5.45312 3.95585 6.17067 3.23544 7.05254 3.23544H62.0734C62.6882 3.23544 63.1867 2.73515 63.1867 2.11772C63.1867 1.50029 62.6882 1 62.0734 1H7.05254C4.94295 1 3.22656 2.72308 3.22656 4.84123V57.0472C3.22656 57.6202 3.35214 58.1642 3.57717 58.653H3.5123C2.12694 58.653 1 59.7846 1 61.1753C1 64.2939 3.527 66.831 6.63335 66.831H9.9631C10.5779 66.831 11.0764 66.3307 11.0764 65.7133C11.0764 65.0958 10.5779 64.5955 9.9631 64.5955H6.63335C4.75488 64.5955 3.22656 63.0611 3.22656 61.1753C3.22656 61.0171 3.35466 60.8884 3.5123 60.8884H29.3519L30.5076 62.0965C30.7176 62.316 31.0075 62.44 31.3105 62.44H46.6894C46.9925 62.44 47.2824 62.316 47.4923 62.0965L48.648 60.8884H74.4875C74.6452 60.8884 74.7733 61.0171 74.7733 61.1753C74.7733 63.0611 73.245 64.5955 71.3665 64.5955H15.1056C14.4907 64.5955 13.9923 65.0958 13.9923 65.7133C13.9923 66.3307 14.4907 66.831 15.1056 66.831H71.3667C74.4729 66.831 77 64.2939 77 61.1753C77 59.7846 75.8731 58.653 74.4877 58.653ZM48.1739 58.653C47.8708 58.653 47.5809 58.777 47.371 58.9965L46.2153 60.2045H31.7849L30.6292 58.9965C30.4191 58.777 30.1292 58.653 29.8263 58.653H7.05254C6.17067 58.653 5.45312 57.9326 5.45312 57.0472V56.3766H36.4163C37.0311 56.3766 37.5296 55.8763 37.5296 55.2589C37.5296 54.6414 37.0311 54.1411 36.4163 54.1411H5.45312V7.7473H72.5469V54.1411H41.5837C40.9689 54.1411 40.4704 54.6414 40.4704 55.2589C40.4704 55.8763 40.9689 56.3766 41.5837 56.3766H72.5469V57.0472C72.5469 57.9326 71.8293 58.653 70.9475 58.653H48.1739Z" fill="#EA2D2C" stroke="#EA2D2C"/>
<path d="M41.3202 22.5778L44.9333 18.9611C45.7455 18.1481 46.8252 17.7004 47.9737 17.7004C49.1223 17.7004 50.2022 18.1481 51.0142 18.9611C51.8263 19.774 52.2737 20.8549 52.2737 22.0045C52.2737 23.1542 51.8264 24.2351 51.0142 25.048L43.7878 32.2816C42.1114 33.9597 39.3833 33.9597 37.7069 32.2816C37.2679 31.8425 36.5567 31.8423 36.1177 32.2818C35.6788 32.7211 35.679 33.4333 36.1177 33.8724C37.394 35.1501 39.0706 35.7887 40.7474 35.7887C42.4239 35.7887 44.1005 35.15 45.3769 33.8724L52.6033 26.6388C53.84 25.4009 54.521 23.755 54.521 22.0045C54.521 20.2539 53.84 18.6081 52.6033 17.3704C51.3668 16.1325 49.7225 15.4507 47.9737 15.4507C46.2249 15.4507 44.5807 16.1325 43.344 17.3703L39.7309 20.987C39.2921 21.4265 39.2921 22.1386 39.7309 22.5778C40.1698 23.0168 40.8813 23.0168 41.3202 22.5778Z" fill="#EA2D2C" stroke="#EA2D2C"/>
<path d="M36.6791 39.0192L33.0654 42.5402C32.253 43.3317 31.1732 43.7675 30.0244 43.7675C28.8757 43.7675 27.7957 43.3317 26.9835 42.5402C25.3066 40.9065 25.3066 38.2481 26.9835 36.6143L34.211 29.5722C35.0232 28.7809 36.1032 28.345 37.2519 28.345C38.4007 28.345 39.4807 28.7809 40.2929 29.5724C40.7318 29.9999 41.4434 29.9999 41.8822 29.5724C42.3211 29.1446 42.3211 28.4513 41.8822 28.0237C40.6455 26.8187 39.0009 26.1549 37.2518 26.1549C35.5027 26.1549 33.8582 26.8187 32.6215 28.0237L25.394 35.0656C22.8407 37.5534 22.8407 41.6012 25.394 44.0889C26.6307 45.294 28.2752 45.9578 30.0243 45.9578C31.7733 45.9578 33.4178 45.294 34.6547 44.089L38.2684 40.568C38.7073 40.1402 38.7073 39.447 38.2684 39.0193C37.8296 38.5918 37.118 38.5918 36.6791 39.0192Z" fill="#EA2D2C" stroke="#EA2D2C"/>
</svg>
